<svg width="22" height="22" viewBox="0 0 22 22" fill="none" xmlns="http://www.w3.org/2000/svg">
<path d="M11 14.6667L14.6666 11L11 7.33333L9.71665 8.61666L11.1833 10.0833H7.33331V11.9167H11.1833L9.71665 13.3833L11 14.6667ZM11 20.1667C9.73192 20.1667 8.54026 19.9259 7.42498 19.4443C6.3097 18.9634 5.33956 18.3104 4.51456 17.4854C3.68956 16.6604 3.03659 15.6903 2.55565 14.575C2.07409 13.4597 1.83331 12.2681 1.83331 11C1.83331 9.73194 2.07409 8.54027 2.55565 7.42499C3.03659 6.30972 3.68956 5.33958 4.51456 4.51458C5.33956 3.68958 6.3097 3.0363 7.42498 2.55474C8.54026 2.0738 9.73192 1.83333 11 1.83333C12.268 1.83333 13.4597 2.0738 14.575 2.55474C15.6903 3.0363 16.6604 3.68958 17.4854 4.51458C18.3104 5.33958 18.9634 6.30972 19.4443 7.42499C19.9259 8.54027 20.1666 9.73194 20.1666 11C20.1666 12.2681 19.9259 13.4597 19.4443 14.575C18.9634 15.6903 18.3104 16.6604 17.4854 17.4854C16.6604 18.3104 15.6903 18.9634 14.575 19.4443C13.4597 19.9259 12.268 20.1667 11 20.1667ZM11 18.3333C13.0472 18.3333 14.7812 17.6229 16.2021 16.2021C17.6229 14.7812 18.3333 13.0472 18.3333 11C18.3333 8.95277 17.6229 7.21874 16.2021 5.79791C14.7812 4.37708 13.0472 3.66666 11 3.66666C8.95276 3.66666 7.21873 4.37708 5.7979 5.79791C4.37706 7.21874 3.66665 8.95277 3.66665 11C3.66665 13.0472 4.37706 14.7812 5.7979 16.2021C7.21873 17.6229 8.95276 18.3333 11 18.3333Z" fill="#7689CE"/>
</svg>
